<svg class="" style="display:inline-block;vertical-align:middle" width="50" height="50" viewBox="0 0 896 1024" xmlns="http://www.w3.org/2000/svg"><path style="fill:#565D66" d="M704 256c0-141.158-114.842-256-256-256-141.16 0-256 114.842-256 256h-192v608c0 88.366 71.634 160 160 160h576c88.366 0 160-71.634 160-160v-608h-192zM448 64c105.87 0 192 86.13 192 192h-384c0-105.87 86.13-192 192-192zM832 864c0 52.934-43.066 96-96 96h-576c-52.934 0-96-43.066-96-96v-544h128v96c0 17.674 14.328 32 32 32s32-14.326 32-32v-96h384v96c0 17.674 14.326 32 32 32s32-14.326 32-32v-96h128v544z"></path></svg>