<svg class="" style="display:inline-block;vertical-align:middle" width="50" height="50" viewBox="0 0 1024 1024" xmlns="http://www.w3.org/2000/svg"><path style="fill:#565D66" d="M824.64 687.702h-357.413c-51.597 0-106.834-37.604-125.736-85.624l-144.438-366.634c-7.626-19.363-34.499-37.657-55.31-37.657h-103.886c-20.905 0.010-37.856-16.94-37.856-37.846s16.951-37.856 37.856-37.856h103.897c51.608 0 106.834 37.604 125.736 85.624l144.438 366.634c7.626 19.363 34.499 37.657 55.3 37.657h357.413c20.297 0 45.891-18.094 52.656-37.216l69.628-196.759c1.951-5.507 1.458-8.863 0.923-9.629-0.545-0.766-3.545-2.339-9.388-2.339h-492.936c-20.905 0-37.856-16.951-37.856-37.856s16.951-37.856 37.856-37.856h492.936c29.821 0 55.772 12.524 71.212 34.353 15.43 21.828 18.577 50.464 8.622 78.576l-69.628 196.759c-17.391 49.153-71.873 87.67-124.026 87.67z"></path><path style="fill:#565D66" d="M454.052 817.79c0 46.461-37.664 84.124-84.124 84.124s-84.124-37.664-84.124-84.124c0-46.461 37.664-84.124 84.124-84.124s84.124 37.664 84.124 84.124z"></path><path style="fill:#565D66" d="M993.434 817.79c0 46.461-37.664 84.124-84.124 84.124s-84.124-37.664-84.124-84.124c0-46.461 37.664-84.124 84.124-84.124s84.124 37.664 84.124 84.124z"></path><path style="fill:#565D66" d="M823.297 456.831h-334.368c-10.458 0-18.923-8.475-18.923-18.923 0-10.458 8.475-18.923 18.923-18.923h334.368c10.458 0 18.923 8.475 18.923 18.923s-8.465 18.923-18.923 18.923z"></path><path style="fill:#565D66" d="M797.724 551.466h-274.684c-10.447 0-18.923-8.475-18.923-18.923 0-10.458 8.475-18.923 18.923-18.923h274.695c10.458 0 18.923 8.475 18.923 18.923-0.010 10.447-8.475 18.923-18.933 18.923z"></path></svg>