<svg class="" style="display:inline-block;vertical-align:middle" width="72" height="72" viewBox="0 0 1024 1024" xmlns="http://www.w3.org/2000/svg"><path style="fill:#565D66" d="M928 64h-256c-53 0-96 43-96 96v256c0 53 43 96 96 96h160v128c0 70.6-57.4 128-128 128h-16c-26.6 0-48 21.4-48 48v96c0 26.6 21.4 48 48 48h16c176.8 0 320-143.2 320-320v-480c0-53-43-96-96-96zM352 64h-256c-53 0-96 43-96 96v256c0 53 43 96 96 96h160v128c0 70.6-57.4 128-128 128h-16c-26.6 0-48 21.4-48 48v96c0 26.6 21.4 48 48 48h16c176.8 0 320-143.2 320-320v-480c0-53-43-96-96-96z"></path></svg>