  <svg class="" style="display:inline-block;vertical-align:middle" width="50" height="50" viewBox="0 0 1024 1024" xmlns="http://www.w3.org/2000/svg"><path style="fill:#565D66" d="M874.040 661.96c-55.766-55.764-122.142-97.046-194.562-122.036 77.564-53.422 128.522-142.828 128.522-243.924 0-163.214-132.786-296-296-296s-296 132.786-296 296c0 101.096 50.958 190.502 128.524 243.924-72.42 24.99-138.796 66.272-194.562 122.036-96.704 96.706-149.962 225.28-149.962 362.040h80c0-238.206 193.794-432 432-432s432 193.794 432 432h80c0-136.76-53.258-265.334-149.96-362.040zM512 512c-119.102 0-216-96.896-216-216s96.898-216 216-216c119.102 0 216 96.896 216 216s-96.898 216-216 216z"></path></svg>