<svg width="20" height="20" viewBox="0 0 20 20" fill="none" xmlns="http://www.w3.org/2000/svg">
  <path
    d="M15.982 16.725C15.2833 15.7999 14.3793 15.0496 13.3412 14.5334C12.3031 14.0171 11.1594 13.7489 10 13.75C8.84066 13.7489 7.6969 14.0171 6.65883 14.5334C5.62077 15.0496 4.71675 15.7999 4.01801 16.725M15.982 16.725C17.3455 15.5122 18.3071 13.9136 18.7412 12.1411C19.1753 10.3686 19.0603 8.50609 18.4115 6.80048C17.7627 5.09487 16.6107 3.62678 15.1084 2.5909C13.6061 1.55502 11.8244 1.0003 9.99951 1.0003C8.17467 1.0003 6.39295 1.55502 4.89062 2.5909C3.38829 3.62678 2.23634 5.09487 1.58755 6.80048C0.938753 8.50609 0.823765 10.3686 1.25783 12.1411C1.6919 13.9136 2.65451 15.5122 4.01801 16.725M15.982 16.725C14.336 18.1932 12.2056 19.0031 10 19C7.79404 19.0034 5.66425 18.1934 4.01801 16.725M13 7.75C13 8.54565 12.6839 9.30871 12.1213 9.87132C11.5587 10.4339 10.7957 10.75 10 10.75C9.20436 10.75 8.4413 10.4339 7.87869 9.87132C7.31608 9.30871 7.00001 8.54565 7.00001 7.75C7.00001 6.95435 7.31608 6.19129 7.87869 5.62868C8.4413 5.06607 9.20436 4.75 10 4.75C10.7957 4.75 11.5587 5.06607 12.1213 5.62868C12.6839 6.19129 13 6.95435 13 7.75Z"
    stroke="#000000"
    style="stroke:#000000;stroke-opacity:1;"
    stroke-width="1.5" stroke-linecap="round" stroke-linejoin="round" />
</svg>