<svg width="23" height="17" viewBox="0 0 23 17" fill="none" xmlns="http://www.w3.org/2000/svg">
  <path
    d="M18.0128 12.1519H10.334C9.22543 12.1519 8.03869 11.344 7.6326 10.3124L4.52944 2.43545C4.3656 2.01945 3.78825 1.62641 3.34114 1.62641H1.10921C0.66008 1.62663 0.295898 1.26246 0.295898 0.813312C0.295898 0.36416 0.66008 0 1.10921 0H3.34137C4.45014 0 5.63663 0.807898 6.04273 1.83958L9.14589 9.71648C9.30973 10.1325 9.88708 10.5255 10.334 10.5255H18.0128C18.4488 10.5255 18.9987 10.1368 19.1441 9.72596L20.64 5.49871C20.6819 5.3804 20.6713 5.3083 20.6598 5.29184C20.6481 5.27538 20.5836 5.24159 20.4581 5.24159H9.86768C9.41855 5.24159 9.05437 4.8774 9.05437 4.42827C9.05437 3.97914 9.41855 3.61496 9.86768 3.61496H20.4581C21.0988 3.61496 21.6563 3.88403 21.988 4.35301C22.3196 4.82197 22.3872 5.4372 22.1733 6.04117L20.6774 10.2684C20.3037 11.3244 19.1332 12.1519 18.0128 12.1519Z"
    fill="black" style="fill:black;fill-opacity:1;" />
  <path
    d="M10.0509 14.9468C10.0509 15.945 9.24171 16.7541 8.24355 16.7541C7.24539 16.7541 6.4362 15.945 6.4362 14.9468C6.4362 13.9486 7.24539 13.1394 8.24355 13.1394C9.24171 13.1394 10.0509 13.9486 10.0509 14.9468Z"
    fill="black" style="fill:black;fill-opacity:1;" />
  <path
    d="M21.6392 14.9468C21.6392 15.945 20.83 16.7541 19.8318 16.7541C18.8337 16.7541 18.0245 15.945 18.0245 14.9468C18.0245 13.9486 18.8337 13.1394 19.8318 13.1394C20.83 13.1394 21.6392 13.9486 21.6392 14.9468Z"
    fill="black" style="fill:black;fill-opacity:1;" />
  <path
    d="M17.9839 7.19181H10.8002C10.5755 7.19181 10.3937 7.00973 10.3937 6.78526C10.3937 6.56058 10.5757 6.37871 10.8002 6.37871H17.9839C18.2086 6.37871 18.3904 6.56079 18.3904 6.78526C18.3904 7.00973 18.2086 7.19181 17.9839 7.19181Z"
    fill="black" style="fill:black;fill-opacity:1;" />
  <path
    d="M17.4345 9.22498H11.5331C11.3086 9.22498 11.1265 9.0429 11.1265 8.81843C11.1265 8.59375 11.3086 8.41188 11.5331 8.41188H17.4347C17.6594 8.41188 17.8413 8.59396 17.8413 8.81843C17.841 9.04288 17.6592 9.22498 17.4345 9.22498Z"
    fill="black" style="fill:black;fill-opacity:1;" />
</svg>