<svg width="21" height="21" viewBox="0 0 21 21" fill="#000000" xmlns="http://www.w3.org/2000/svg">
  <path
    d="M7.87012 0.915192C9.15851 0.743809 10.4692 0.886015 11.6914 1.32828C12.9136 1.77059 14.0122 2.49994 14.8926 3.45621C15.7729 4.41243 16.41 5.56695 16.75 6.82144C17.09 8.07601 17.1219 9.39429 16.8447 10.6642C16.5676 11.9341 15.9889 13.1185 15.1572 14.1173L14.8652 14.4679L15.1885 14.7912L20.0732 19.6769L20.0801 19.6828L20.0859 19.6886C20.1136 19.7144 20.136 19.7459 20.1514 19.7804C20.1666 19.8148 20.1751 19.8522 20.1758 19.8898C20.1764 19.9275 20.1694 19.9652 20.1553 20.0002C20.1412 20.0349 20.1202 20.0664 20.0938 20.0929C20.0671 20.1196 20.035 20.1413 20 20.1554C19.965 20.1696 19.9274 20.1766 19.8896 20.1759C19.852 20.1753 19.8147 20.1668 19.7803 20.1515C19.7458 20.1361 19.7142 20.1137 19.6885 20.0861L19.6826 20.0802L19.6768 20.0734L14.4688 14.8654L14.1172 15.1574C12.9353 16.1418 11.4973 16.7694 9.97168 16.966C8.44609 17.1625 6.89579 16.9204 5.50293 16.2677C4.11013 15.6151 2.93261 14.5785 2.10742 13.2804C1.28222 11.9823 0.8436 10.4759 0.84375 8.93765C0.843922 7.63795 1.15716 6.35734 1.75684 5.20425C2.35655 4.0512 3.2251 3.05908 4.28906 2.31265C5.35314 1.56622 6.58169 1.08659 7.87012 0.915192ZM8.9375 1.4064C7.94854 1.4064 6.96935 1.60121 6.05566 1.97964C5.14193 2.35813 4.31165 2.91312 3.6123 3.61246C2.913 4.31178 2.35796 5.14212 1.97949 6.05582C1.60111 6.96945 1.40625 7.94877 1.40625 8.93765C1.40627 9.92658 1.60106 10.9058 1.97949 11.8195C2.35797 12.7332 2.91296 13.5635 3.6123 14.2628C4.31163 14.9622 5.14196 15.5172 6.05566 15.8957C6.96932 16.2741 7.94858 16.4689 8.9375 16.4689C10.9349 16.4689 12.8503 15.6752 14.2627 14.2628C15.675 12.8505 16.4687 10.935 16.4688 8.93765C16.4688 6.94028 15.675 5.02483 14.2627 3.61246C12.8503 2.20007 10.9349 1.4064 8.9375 1.4064Z"
    fill="black" stroke="#000000"
    style="fill:black;fill-opacity:1;stroke:#000000;" />
</svg>
