<svg xmlns="https://www.w3.org/2000/svg" version="1.1" data-style="16" x="0px" y="0px" viewBox="0 0 500 87" preserveAspectRatio="none" fill="var(--wp--preset--color--button, #058677)"><path data-style="16" d="M231.999 62.8171C231.993 62.7829 231.991 62.7415 231.984 62.709H232.027C232.018 62.7451 232.006 62.7793 231.999 62.8171ZM499.06 52.9519C488.634 51.6226 478.396 49.3189 468.135 47.08C468.007 47.0187 467.875 46.9881 467.735 46.9917C457.763 44.8177 447.768 42.7175 437.557 41.6512C436.724 41.5647 435.868 41.48 435.018 41.3936C437.208 40.9109 439.566 40.2372 440.167 39.9166C443.763 38.0163 446.591 35.4424 448.462 31.8004C450.377 28.0881 451.83 25.0711 452.38 20.9877C452.74 18.3057 452.839 13.7973 450.573 11.8953C449.952 11.3747 448.638 11.4251 448.494 12.4446C448.186 14.6367 442.756 20.4942 441.308 22.0937C438.292 25.4115 434.063 27.5621 430.864 30.7863C428.337 33.3314 425.646 37.4273 426.869 40.7199C420.421 40.3255 413.848 40.3363 407.78 41.4566C396.261 43.5784 384.8 46.0209 373.308 48.2832C368.537 49.2234 363.773 50.0898 359.007 50.8967C360.909 49.4216 363.229 47.8563 363.827 47.2295C366.997 43.9063 369.488 39.4555 371.891 35.5631C377.1 27.1262 373.397 18.4084 376.371 9.46904C376.875 7.94882 374.458 7.28778 373.979 8.80799C371.239 17.4808 362.831 23.9363 357.701 31.2762C353.364 37.4796 350.055 44.7204 349.979 52.3359C334.986 54.5568 319.942 55.9563 304.647 55.9563C297.962 55.9563 291.314 56.1887 284.686 56.5273C288.706 54.0795 291.676 50.2699 293.484 45.5274C296.469 37.7047 292.177 26.2455 298.121 19.3288C299.146 18.1094 297.422 16.3388 296.352 17.5636C290.938 24.2065 285.235 30.6836 281.044 38.1766C278.711 42.3428 276.933 51.511 278.628 56.6354C278.374 56.7272 278.122 56.8263 277.861 56.9128C265.854 57.6621 253.876 58.6978 241.797 59.4813C223.832 60.6503 207.385 58.3898 190.499 54.1173C198.375 55.0035 205.098 55.4448 212.589 50.9364C215.986 48.8938 223.989 41.725 222.652 36.8636C222.258 35.4352 221.458 35.2425 220.165 35.192C219.266 35.156 217.92 36.0782 217.194 36.4943C214.485 38.0415 211.526 38.6594 208.531 39.4771C199.818 41.8439 187.123 53.332 180.138 51.2786C161.629 45.839 144.988 35.5631 125.641 33.3962C121.232 32.9027 116.851 32.8289 112.492 33.0432C113.007 32.9225 113.409 32.8253 113.596 32.7658C117.71 31.4798 121.279 29.9271 124.171 26.6759C130.085 20.0295 131.821 10.0238 135.418 2.18316C135.998 0.918716 134.607 -0.136789 133.536 0.731391C127.309 5.77116 120.212 9.78785 114.338 15.2689C110.765 18.6065 108.09 27.8882 107.791 32.6902C107.085 32.9856 106.379 33.2882 105.68 33.607C94.446 34.893 83.3505 37.7804 72.3416 40.2967C58.7389 43.4091 45.7432 47.4781 32.4863 50.5545C35.0945 47.7843 37.391 44.4448 38.5312 41.1216C39.6875 37.7552 41.0366 32.8108 40.1306 29.1832C39.3813 26.195 37.2613 23.1528 37.2613 20.1916C37.2613 18.657 35.0368 18.702 34.9161 20.1916C34.2011 29.0824 27.4213 31.9373 23.5595 38.8449C21.2144 43.0417 20.62 48.1841 20.8145 52.9375C14.4184 54.0453 7.90886 54.8198 1.19037 55.0161C-0.394693 55.0647 -0.401889 57.4801 1.19938 57.4838C10.7692 57.5108 18.1757 56.5543 27.1601 54.8522C37.9133 52.815 48.5206 49.8538 59.1171 46.8693C64.4847 48.7623 64.5045 52.761 68.6941 55.4412C71.9633 57.5306 75.328 59.2057 78.952 60.571C82.2896 61.8283 86.0866 61.9543 89.5971 62.0606C93.9326 62.1957 97.2829 63.1071 101.501 63.7754C102.703 63.9627 103.367 62.7703 102.636 61.8247C97.7368 55.5024 92.2143 49.5512 84.1989 47.9338C80.1948 47.1268 76.2682 46.3163 72.2857 45.4139C70.3819 44.9798 67.9809 45.2536 65.8428 44.9798C84.5663 39.7653 103.346 35.1182 122.919 36.1034C133.442 36.6348 143.682 39.5311 152.837 44.7168C152.866 44.7348 152.897 44.7492 152.926 44.7618C153.399 45.8282 154.188 46.862 154.556 47.8797C156.209 52.4602 156.377 57.3126 158.308 61.8211C161.096 68.3324 170.965 74.244 178.004 73.7847C178.966 73.7198 179.533 72.7778 179.081 71.906C177.993 69.8184 176.08 68.6368 174.852 66.6555C172.894 63.4962 171.213 60.2 169.578 56.8551C168.504 54.6523 167.108 52.2531 165.471 50.025C179.992 54.7909 196.432 59.3228 211.634 61.3383C215.631 61.8697 220.631 61.3852 224.446 62.5109C230.869 64.4022 229.761 66.4736 234.893 71.634C237.516 74.2674 240.507 76.8575 243.746 78.7146C249.841 82.2089 256.745 81.3839 263.502 81.3767C264.599 81.3767 265.222 79.9718 264.408 79.1919C261.481 76.3946 258.41 74.6366 256.106 71.0342C254.669 68.7917 252.757 67.0445 250.661 65.4451C247.885 63.3287 243.188 63.7033 239.987 63.199C239.169 63.0729 238.368 62.8387 237.568 62.5956C237.962 62.583 238.342 62.5884 238.739 62.5722C259.768 61.6427 280.507 58.8761 301.606 58.8725C312.412 58.8509 315.944 70.8325 324.579 76.7224C333.358 82.7096 342.603 83.4157 352.733 85.9806C353.587 86.1986 354.688 85.361 354.306 84.41C350.979 76.137 348.057 72.9561 339.595 68.9935C336.865 67.7146 316.742 61.5257 310.632 58.7302C319.517 60.7926 329.604 59.402 334.975 58.7014C345.049 57.3919 354.621 54.7063 364.544 52.9069C371.868 51.5758 379.069 50.0754 386.239 48.6867C387.693 51.2336 390.134 53.4148 391.578 56.1058C393.441 59.5804 395.802 62.5505 398.979 64.8795C405.874 69.9319 414.668 68.4117 421.649 72.4608C422.633 73.0318 423.751 72.1005 423.499 71.0378C421.743 63.6529 417.569 59.8217 412.117 54.9819C409.954 53.06 406.528 51.8027 403.888 50.7076C400.146 49.1586 395.362 49.0145 391.402 47.7158C405.487 45.1311 419.553 43.2524 434.308 44.2755C444.191 44.96 453.986 46.6369 463.702 48.5948C463.702 48.6308 463.686 48.6578 463.688 48.6903C463.761 51.293 465.941 54.1065 466.728 56.6876C467.868 60.4323 469.268 62.6064 471.613 65.6594C473.295 67.8551 476.069 69.4113 478.593 70.4074C480.432 71.1315 482.287 71.7331 484.187 72.2879C486.858 73.0606 488.681 74.9158 490.861 76.5297C491.824 77.2466 492.921 76.074 492.714 75.1103C492.064 72.1077 489.845 69.7968 488.656 66.9689C487.372 63.9213 486.493 61.7742 484.189 59.3372C481.777 56.7849 479.381 54.3587 476.391 52.5016C475.231 51.7793 473.437 51.1219 471.825 50.2861C472.032 50.3294 472.236 50.3762 472.445 50.4194C481.193 52.2855 490.019 55.3061 499.06 54.899C500.349 54.8432 500.277 53.1032 499.06 52.9519Z"></path><defs><linearGradient><stop></stop><stop></stop></linearGradient></defs></svg>